<svg xmlns="http://www.w3.org/2000/svg" viewBox="0 0 32 32">
  <path fill="#ffc24a" d="M5.8 24.6l.17-.237 8.02-15.214.017-.161-3.535-6.64a.656.656 0 0 0-1.227.207z"/>
  <path fill="#ffa712" d="M5.9 24.42l.128-.31 7.937-15.058-3.526-6.69a.592.592 0 0 0-1.074.166z"/>
  <path fill="#f4bd62" d="M16.584 14.01l2.632-2.756-2.632-5.01a.63.63 0 0 0-1.116 0l-1.478 2.912v.241z"/>
  <path fill="#ffa50e" d="m16.537 13.9l2.559-2.679-2.559-4.88a.567.567 0 0 0-1.005 0l-1.448 2.86z"/>
  <path fill="#f6820c" d="M5.802 24.601L5.879 24.523 6.158 24.41 16.418 14.188 16.548 13.834 13.989 8.956z"/>
  <path fill="#fde068" d="M16.994 29.003L27.899 24.601 25.097 9.004a.686.686 0 0 0-1.164-.377L5.8 24.595l9.052 5.03a1.885 1.885 0 0 0 1.82.054z"/>
  <path fill="#fcca3f" d="M27.9 24.504L25.097 8.907a.685.685 0 0 0-1.164-.377L5.801 24.504l9.052 5.03a1.885 1.885 0 0 0 1.821.054z"/>
  <path fill="#eeab37" d="M16.994 28.903a1.885 1.885 0 0 1-1.821-.054l-9.073-5.028-.097.078 9.05 5.03a1.885 1.885 0 0 0 1.821.054l10.906-4.403-.088-.478z"/>
</svg>
